<?xml version="1.0" encoding="UTF-8" standalone="no"?>
<svg
   xmlns:dc="http://purl.org/dc/elements/1.1/"
   xmlns:cc="http://creativecommons.org/ns#"
   xmlns:rdf="http://www.w3.org/1999/02/22-rdf-syntax-ns#"
   xmlns:svg="http://www.w3.org/2000/svg"
   xmlns="http://www.w3.org/2000/svg"
   xmlns:sodipodi="http://sodipodi.sourceforge.net/DTD/sodipodi-0.dtd"
   xmlns:inkscape="http://www.inkscape.org/namespaces/inkscape"
   inkscape:export-ydpi="291.16299"
   inkscape:export-xdpi="291.16299"
   inkscape:export-filename="C:\Users\RedBlueCarrots\OneDrive\Documents\Game_Dev\Uno_v2\Other_Images\Speech_bubble.png"
   version="1.0"
   width="299.99649"
   height="225.92412"
   viewBox="0 0 85.704 64.542"
   id="Layer_1"
   xml:space="preserve"
   sodipodi:docname="Speech_bubble.svg"
   inkscape:version="1.0 (4035a4fb49, 2020-05-01)"><metadata
   id="metadata8"><rdf:RDF><cc:Work
       rdf:about=""><dc:format>image/svg+xml</dc:format><dc:type
         rdf:resource="http://purl.org/dc/dcmitype/StillImage" /></cc:Work></rdf:RDF></metadata><sodipodi:namedview
   inkscape:document-rotation="0"
   pagecolor="#ffffff"
   bordercolor="#666666"
   borderopacity="1"
   objecttolerance="10"
   gridtolerance="10"
   guidetolerance="10"
   inkscape:pageopacity="0"
   inkscape:pageshadow="2"
   inkscape:window-width="1366"
   inkscape:window-height="705"
   id="namedview6"
   showgrid="false"
   inkscape:zoom="2.4610033"
   inkscape:cx="149.99825"
   inkscape:cy="112.96206"
   inkscape:window-x="-8"
   inkscape:window-y="-8"
   inkscape:window-maximized="1"
   inkscape:current-layer="Layer_1" /><defs
   id="defs8" />
<g
   transform="matrix(0.9486962,0,0,0.9486962,2.4834364,1.8361818)"
   id="g3"
   style="fill:#000000;stroke:#000000">
	<path
   d="M 45.673,0 C 67.781,0 85.703,12.475 85.703,27.862 C 85.703,43.249 67.781,55.724 45.673,55.724 C 38.742,55.724 32.224,54.497 26.539,52.34 C 15.319,56.564 0,64.542 0,64.542 C 0,64.542 9.989,58.887 14.107,52.021 C 15.159,50.266 15.775,48.426 16.128,46.659 C 9.618,41.704 5.643,35.106 5.643,27.862 C 5.643,12.475 23.565,0 45.673,0 M 45.673,2.22 C 24.824,2.22 7.862,13.723 7.862,27.863 C 7.862,34.129 11.275,40.177 17.472,44.893 L 18.576,45.734 L 18.305,47.094 C 17.86,49.324 17.088,51.366 16.011,53.163 C 15.67,53.73 15.294,54.29 14.891,54.837 C 18.516,53.191 22.312,51.561 25.757,50.264 L 26.542,49.968 L 27.327,50.266 C 32.911,52.385 39.255,53.505 45.673,53.505 C 66.522,53.505 83.484,42.002 83.484,27.862 C 83.484,13.722 66.522,2.22 45.673,2.22 L 45.673,2.22 z "
   id="path5"
   style="fill:#000000;stroke:#000000" />
</g>
<text
   xml:space="preserve"
   style="font-size:21.8148px;line-height:1.25;font-family:Fingerpop;-inkscape-font-specification:Fingerpop;letter-spacing:0px;word-spacing:0px;stroke-width:0.545372;stroke:#008000;fill:#ff6600;"
   x="19.386044"
   y="37.465748"
   id="text835"><tspan
     id="tspan833"
     x="19.386044"
     y="37.465748"
     style="font-style:normal;font-variant:normal;font-weight:normal;font-stretch:normal;font-family:Chinyen;-inkscape-font-specification:Chinyen;stroke-width:0.545372;stroke:#008000;fill:#ff6600;"
     sodipodi:role="line">UNO</tspan></text></svg>
